<svg xmlns="http://www.w3.org/2000/svg" viewBox="0 0 28 28"><defs><style>.cls-1{fill:#fff;}.cls-2{fill:none;stroke:#333;stroke-linecap:round;stroke-miterlimit:10;}</style></defs><g id="Capa_2" data-name="Capa 2"><g id="Capa_1-2" data-name="Capa 1"><circle class="cls-1" cx="14" cy="14" r="14"/><path class="cls-2" d="M6.5,16.55s-3.48,0-2.75-4.78C4.4,9.59,7,5.46,10.29,5.46h7.05a8,8,0,0,1,7,7.42c.34,3.06-2.89,3.67-2.89,3.67"/><path class="cls-2" d="M7.06,10.57v6.32s.34,3.36,4.4,5.31c1.91.72,6.19.42,8-2.11s1.95-6.39,1.72-9.29"/><rect class="cls-2" x="16.64" y="12.61" width="2.14" height="2.14" rx="1.07"/><rect class="cls-2" x="9.41" y="12.61" width="2.14" height="2.14" rx="1.07"/><path class="cls-2" d="M12.28,17.7A1.51,1.51,0,0,0,14,19.33a1.62,1.62,0,0,0,1.81-1.63A2.65,2.65,0,0,0,12.28,17.7Z"/></g></g></svg>