<svg xmlns="http://www.w3.org/2000/svg" viewBox="0 0 66.82 66.82"><defs><style>.cls-1{fill:#4d4d4d;}</style></defs><g id="Capa_2" data-name="Capa 2"><g id="Capa_1-2" data-name="Capa 1"><g id="_56BhkA" data-name="56BhkA"><path class="cls-1" d="M33.35,66.82A33.41,33.41,0,1,1,66.82,33.47,33.38,33.38,0,0,1,33.35,66.82ZM55,54.7c7-6.5,11.37-18.93,7.25-31.07A30.67,30.67,0,0,0,32.31,3,30.74,30.74,0,0,0,4.25,24.59c-3.63,12,.86,24,7.62,30.14A21.69,21.69,0,0,1,26.75,35.19,11.93,11.93,0,1,1,41.68,16.7a12,12,0,0,1-1.54,18.45Q53.55,40.37,55,54.7ZM32.72,63.86a31.32,31.32,0,0,0,17.49-5A3.45,3.45,0,0,0,52,55.45a18.61,18.61,0,0,0-37.21.36,2.86,2.86,0,0,0,1.44,2.78A30.16,30.16,0,0,0,32.72,63.86Zm.64-47.52a8.91,8.91,0,1,0,9,8.76A8.89,8.89,0,0,0,33.36,16.34Z"/></g></g></g></svg>