<svg xmlns="http://www.w3.org/2000/svg" viewBox="0 0 60.13 60.14"><defs><style>.cls-1{fill:#fff;}</style></defs><g id="Capa_2" data-name="Capa 2"><g id="Capa_1-2" data-name="Capa 1"><g id="_53O5qX" data-name="53O5qX"><path class="cls-1" d="M30,60.14A30.07,30.07,0,1,1,60.13,30.21,30.06,30.06,0,0,1,30,60.14Zm-.26-20.23c.16.11.32.21.47.33l5.89,4.35c.82.6,1.63,1.23,2.46,1.81,1.52,1.05,2.85.55,3.3-1.21.05-.21.09-.42.14-.62q2.31-11.52,4.64-23c.34-1.71.75-3.41,1-5.13.19-1.49-.77-2.15-2.21-1.67l-.36.13L19.85,24.43l-9.11,3.45c-.84.32-1.34.91-1.28,1.55.08.8.64,1.13,1.34,1.34,2.55.78,5.1,1.6,7.66,2.37a1.1,1.1,0,0,1,.81.84q1.49,4.64,3,9.25c.67,2,1.59,2.29,3.16.83S28.32,41.31,29.78,39.91Z"/><path class="cls-1" d="M23.71,42.59c-.16-.47-.33-.94-.48-1.42-.85-2.58-1.67-5.16-2.54-7.73-.17-.53-.12-.79.38-1.1q9.32-5.81,18.6-11.66a2.38,2.38,0,0,1,.55-.32,2.74,2.74,0,0,1,.7,0c-.06.24-.1.49-.18.73,0,.09-.14.15-.22.22q-7.58,6.81-15.16,13.61a2.45,2.45,0,0,0-.89,1.77c-.17,2-.43,3.91-.65,5.87Z"/></g></g></g></svg>