<svg xmlns="http://www.w3.org/2000/svg" viewBox="0 0 87.99 87.99"><defs><style>.cls-1{fill:none;stroke:#4d4d4d;stroke-miterlimit:10;stroke-width:3.83px;}.cls-2{fill:#4d4d4d;}</style></defs><g id="Capa_2" data-name="Capa 2"><g id="Capa_1-2" data-name="Capa 1"><circle class="cls-1" cx="43.99" cy="43.99" r="42.08"/><g id="Eu5os4"><path class="cls-2" d="M13.6,43.41A29.82,29.82,0,1,1,43.38,73.25,29.87,29.87,0,0,1,13.6,43.41Zm53,0A23.2,23.2,0,1,0,43.42,66.63,23.16,23.16,0,0,0,66.61,43.44Z"/><path class="cls-2" d="M47.2,41.67l.36-.21,6.71-4.09A3.31,3.31,0,1,1,57.72,43L46.47,49.93c-.32.19-.63.39-.95.57a3.29,3.29,0,0,1-4.94-2.84q0-11.43,0-22.85a3.31,3.31,0,0,1,6.61-.13c0,.17,0,.35,0,.52V41.67Z"/></g></g></g></svg>