<svg xmlns="http://www.w3.org/2000/svg" viewBox="0 0 28 28"><defs><style>.cls-1{fill:#fff;}.cls-2{fill:#333;}</style></defs><g id="Capa_2" data-name="Capa 2"><g id="Capa_1-2" data-name="Capa 1"><circle class="cls-1" cx="14" cy="14" r="14"/><circle class="cls-2" cx="13.2" cy="14.48" r="0.47"/><g id="eZQD4D"><path class="cls-2" d="M4.88,7.52a.61.61,0,0,1,.65-.36H7.77c.39,0,.55.12.64.49.16.6.32,1.2.47,1.8,0,.14.09.18.23.18H21.24a1,1,0,0,1,.34.05.47.47,0,0,1,.28.6l-.72,2.78c-.38,1.47-.76,2.94-1.15,4.41-.11.43-.24.53-.68.53H10.62c-.42,0-.56-.11-.66-.52q-1.2-4.59-2.39-9.18a1.21,1.21,0,0,0-.05-.14h-2a.61.61,0,0,1-.65-.36Zm4.31,3.1c.11.45.23.87.33,1.3a.19.19,0,0,0,.21.17h2.84V10.62Zm11.57,0H17.38v1.46h2.86A.24.24,0,0,0,20.4,12C20.52,11.54,20.64,11.09,20.76,10.62Zm-7.19,0v1.45h2.8V10.62Zm0,2.46v1.45h2.8V13.08Zm0,2.46V17h2.81V15.54Zm-1-1V13.08H9.83c.11.45.23.88.34,1.32,0,.11.07.15.19.15.68,0,1.37,0,2.06,0Zm4.81-1.46v1.47h2.05c.31,0,.31,0,.39-.3l.3-1.17Zm-4.8,2.46H10.47c.11.45.23.88.34,1.32,0,.12.07.15.19.15h1.43l.15,0ZM17.38,17H19s.1-.07.12-.12c.11-.39.21-.79.31-1.19l0-.15H17.38Z"/><path class="cls-2" d="M16.39,20.18A1.79,1.79,0,1,1,18.17,22,1.79,1.79,0,0,1,16.39,20.18Zm1.78.8a.81.81,0,0,0,.82-.8.83.83,0,0,0-.81-.81.81.81,0,0,0,0,1.61Z"/><path class="cls-2" d="M13.56,20.18a1.79,1.79,0,1,1-1.78-1.79A1.81,1.81,0,0,1,13.56,20.18Zm-1.78.8a.8.8,0,0,0,.8-.8.81.81,0,1,0-1.62,0A.81.81,0,0,0,11.78,21Z"/></g></g></g></svg>