<svg xmlns="http://www.w3.org/2000/svg" viewBox="0 0 87.99 87.99"><defs><style>.cls-1{fill:#4d4d4d;}.cls-2{fill:none;stroke:#4d4d4d;stroke-miterlimit:10;stroke-width:3.83px;}</style></defs><g id="Capa_2" data-name="Capa 2"><g id="Capa_1-2" data-name="Capa 1"><g id="_4LvIy8" data-name="4LvIy8"><path class="cls-1" d="M54,67.85c-1.28-.29-3.08-.58-4.8-1.12a20.55,20.55,0,0,0-10.81-.31c-2.36.52-4.77.88-7.17,1.19A8.51,8.51,0,0,1,21.9,56.32a6.45,6.45,0,0,1,3.54-3.6c1.15-.58,2.33-1.12,3.5-1.66a11,11,0,0,0,4.36-3.94c.75-1.09,1.47-2.2,2.23-3.28a8,8,0,0,1,5.83-3.44,10.05,10.05,0,0,1,10,4.19c.26.35.57.68.8,1a26.72,26.72,0,0,0,9,9A6.63,6.63,0,0,1,64.55,59c.66,3.92-.94,6.61-4.29,7.82a9.54,9.54,0,0,1-1.71.5C57.21,67.5,55.86,67.63,54,67.85Z"/><path class="cls-1" d="M58.08,29.4c-.15,3.24-.75,6.36-2.89,9a5.68,5.68,0,0,1-1.47,1.3c-2,1.17-4,.52-5.37-1.66a13.4,13.4,0,0,1-1.76-8.08c.18-3,.84-5.84,2.88-8.13a6.33,6.33,0,0,1,2.7-1.75c1.51-.48,3.07.47,4.12,2.17A13.87,13.87,0,0,1,58.08,29.4Z"/><path class="cls-1" d="M32.25,28.25a14.06,14.06,0,0,1,2.3-8.2c1.54-2.13,3.66-2.67,5.53-1.28a7.6,7.6,0,0,1,1.8,2c2.63,4.13,2.37,11.63-.53,15.56A5.38,5.38,0,0,1,40,37.67c-1.9,1.26-3.88.77-5.4-1.26A12.72,12.72,0,0,1,32.35,30C32.28,29.39,32.28,28.79,32.25,28.25Z"/><path class="cls-1" d="M69.1,38.92c-.34,4.23-1.27,7.5-4.14,9.89-2.41,2-5.26,1.32-6.58-1.54-2-4.27-.44-10.77,3.21-13.7,2.42-1.93,5.3-1.31,6.5,1.55A24.05,24.05,0,0,1,69.1,38.92Z"/><path class="cls-1" d="M31.31,38.13a9.15,9.15,0,0,1-1.54,5.41,4.4,4.4,0,0,1-6.86.82,10.85,10.85,0,0,1-2-12.37c1.95-3.43,5.62-3.73,8.13-.65C30.4,33,31.08,34.94,31.31,38.13Z"/></g><circle class="cls-2" cx="43.99" cy="43.99" r="42.08"/></g></g></svg>