<svg xmlns="http://www.w3.org/2000/svg" viewBox="0 0 61 61"><defs><style>.cls-1{fill:#4d4d4d;}</style></defs><g id="Capa_2" data-name="Capa 2"><g id="Capa_1-2" data-name="Capa 1"><g id="dTHVr1"><path class="cls-1" d="M28.2,0h4.6a5.58,5.58,0,0,0,.78.2A30.36,30.36,0,0,1,59.8,22.14c.57,2,.81,4,1.2,6.06v4.6a9.63,9.63,0,0,0-.22,1c-1.65,12-8.09,20.4-19.25,25C38.79,60,35.72,60.3,32.8,61H28.2a2.59,2.59,0,0,0-.51-.18,30.43,30.43,0,0,1-13.32-4.43,2.22,2.22,0,0,0-1.61-.1c-3.51,1.06-7,2.19-10.72,3.38C3.21,56.2,4.27,53,5.39,49.76a2.85,2.85,0,0,0-.27-2.5,86.91,86.91,0,0,1-4-8.8A34,34,0,0,1,0,32.8V28.2a9.63,9.63,0,0,0,.22-1c1.64-12,8.08-20.4,19.25-25C22.21,1,25.28.7,28.2,0ZM41,47.75a44.85,44.85,0,0,0,4.3-1.62c2.61-1.26,3.57-3.57,3.55-6.34a1.88,1.88,0,0,0-.71-1.43C45.79,37.14,43.37,36,41,34.9a1.64,1.64,0,0,0-2.14.64c-.63.82-1.25,1.66-1.85,2.51a2.31,2.31,0,0,1-3.17.82,23.67,23.67,0,0,1-10.58-8.75c-1.66-2.42-1.65-2.42.34-4.65a4.6,4.6,0,0,0,1-1.27,3.07,3.07,0,0,0,.21-1.89c-.87-2.37-1.82-4.71-2.92-7A2.8,2.8,0,0,0,20.07,14c-2.73-.53-4.58.88-5.89,3.12C12,21,12.42,24.81,14.44,28.48A39.53,39.53,0,0,0,27.59,43,32.3,32.3,0,0,0,41,47.75Z"/></g></g></g></svg>