<svg xmlns="http://www.w3.org/2000/svg" viewBox="0 0 138 138"><defs><style>.cls-1{fill:none;stroke:#4d4d4d;stroke-miterlimit:10;stroke-width:6px;}.cls-2{fill:#4d4d4d;}</style></defs><g id="Capa_2" data-name="Capa 2"><g id="Capa_1-2" data-name="Capa 1"><circle class="cls-1" cx="69" cy="69" r="66"/><g id="vBnjaA"><path class="cls-2" d="M97.76,89l-5-2.89-6.58,6.63,2.41,3.58c1.1,1.63.86,3.39-.58,4.36s-3.17.56-4.28-1.06c-.92-1.33-1.83-2.67-2.63-3.84l-9.4,2.6V104c.26.06.52.12.78.2a3,3,0,0,1,2.09,3.1A2.91,2.91,0,0,1,71.83,110c-2.08.05-4.17.05-6.25,0a2.93,2.93,0,0,1-2.75-2.53,3,3,0,0,1,2-3.17c.28-.1.58-.16.91-.25V98.32l-9.43-2.59c-.85,1.26-1.82,2.71-2.82,4.13a2.78,2.78,0,0,1-3,1.2,2.57,2.57,0,0,1-2.21-2.29,4.11,4.11,0,0,1,.52-2.32c.75-1.36,1.71-2.6,2.49-3.75l-6.59-6.63L39.89,88.8a13.29,13.29,0,0,1,0,2.3,2.67,2.67,0,0,1-2.28,2.23,2.62,2.62,0,0,1-2.89-1.16c-1.17-1.83-2.25-3.72-3.27-5.64A2.85,2.85,0,0,1,32.33,83a3,3,0,0,1,3.73.18c.2.18.38.39.63.66l5-2.86-2.52-9.26H36.58a3,3,0,1,1,0-5.88h2.57l2.52-9.27-5-2.87A3.12,3.12,0,0,1,33.42,55a2.88,2.88,0,0,1-2-4.1c1-1.88,2.06-3.7,3.17-5.49a2.82,2.82,0,0,1,3.64-1,2.93,2.93,0,0,1,1.58,3.53c-.05.17-.11.34-.19.63l5,2.89,6.59-6.63L48.8,41.25c-1.1-1.63-.86-3.37.59-4.36s3.16-.56,4.27,1.06l2.64,3.86,9.4-2.62v-5.7c-.23-.05-.47-.1-.7-.17a2.93,2.93,0,0,1,.75-5.77c1.9,0,3.8,0,5.7,0a2.95,2.95,0,0,1,.62,5.86l-.39.08v5.72l9.44,2.57c.85-1.25,1.82-2.69,2.82-4.12a2.77,2.77,0,0,1,3-1.22,2.58,2.58,0,0,1,2.29,2.31,4.38,4.38,0,0,1-.56,2.41c-.74,1.32-1.68,2.54-2.45,3.67l6.6,6.62,4.76-2.74a13.15,13.15,0,0,1,0-2.37,2.88,2.88,0,0,1,5.15-1Q104.45,48.11,106,51a2.84,2.84,0,0,1-.91,3.54,3,3,0,0,1-3.73-.17c-.2-.18-.37-.4-.62-.67l-5,2.87c.84,3.09,1.66,6.08,2.52,9.26h2.56a3,3,0,1,1,0,5.88c-.91,0-1.83,0-2.57,0L95.74,81l5,2.89a3.14,3.14,0,0,1,2.91-1.43A2.9,2.9,0,0,1,106,86.59c-1,1.88-2,3.7-3.16,5.49a2.83,2.83,0,0,1-3.73,1,2.93,2.93,0,0,1-1.5-3.49C97.61,89.41,97.67,89.24,97.76,89ZM45.15,68.71A23.55,23.55,0,1,0,68.8,45.21,23.6,23.6,0,0,0,45.15,68.71Z"/><path class="cls-2" d="M58.38,68.76A4.42,4.42,0,1,1,54,73.15,4.44,4.44,0,0,1,58.38,68.76Z"/><path class="cls-2" d="M68.7,59.93A2.95,2.95,0,1,1,71.64,57,3,3,0,0,1,68.7,59.93Z"/><path class="cls-2" d="M80.47,77.56a2.94,2.94,0,1,1-3-2.91A3,3,0,0,1,80.47,77.56Z"/></g></g></g></svg>