<svg xmlns="http://www.w3.org/2000/svg" viewBox="0 0 55.88 65.91"><defs><style>.cls-1{fill:#4d4d4d;}</style></defs><g id="Capa_2" data-name="Capa 2"><g id="Capa_1-2" data-name="Capa 1"><g id="obpqBR"><path class="cls-1" d="M27.16,0c16.43,0,29,12.64,28.71,28.2a26.24,26.24,0,0,1-7.49,18.42c-6,6.12-12.08,12.06-18.16,18.06-1.67,1.65-2.8,1.64-4.47,0-6-6-12.23-11.77-18-18C.39,38.9-1.79,29.55,1.48,19.33S11.92,3,22.27.63A38.44,38.44,0,0,1,27.16,0Zm1.05,60.06L43.47,44.41c.46-.47,1-.93,1.38-1.42a22.22,22.22,0,0,0,5.72-18.63A22.87,22.87,0,0,0,8.1,16.45a22.13,22.13,0,0,0,2.73,26.12C16.29,48.48,22.16,54,28.21,60.06Z"/><path class="cls-1" d="M28.09,40.43A12.64,12.64,0,1,1,40.62,27.8,12.52,12.52,0,0,1,28.09,40.43Zm0-20.29a7.87,7.87,0,0,0-7.77,7.63A7.88,7.88,0,0,0,28,35.5,7.87,7.87,0,0,0,35.66,28,7.87,7.87,0,0,0,28.07,20.14Z"/></g></g></g></svg>