<svg xmlns="http://www.w3.org/2000/svg" viewBox="0 0 138 138"><defs><style>.cls-1{fill:#4d4d4d;}.cls-2{fill:none;stroke:#4d4d4d;stroke-miterlimit:10;stroke-width:6px;}</style></defs><g id="Capa_2" data-name="Capa 2"><g id="Capa_1-2" data-name="Capa 1"><g id="HmJ7Il"><path class="cls-1" d="M31.28,107c-1.09-.81-1.14-1.48-.16-2.46q5.82-5.82,11.63-11.63a3.06,3.06,0,0,1,.55-.39,14.86,14.86,0,0,1-.87-2.11,2.71,2.71,0,0,1,.91-2.53l4-4-.27-.37a1.24,1.24,0,0,1,.09-1.77,1.22,1.22,0,0,1,1.72.11q3.32,3.27,6.59,6.59a1.22,1.22,0,1,1-1.66,1.8L53.45,90c-1.32,1.32-2.64,2.63-3.94,4a2.89,2.89,0,0,1-2.89.91A10.88,10.88,0,0,1,44.9,94a2.38,2.38,0,0,1-.38.59q-5.64,5.67-11.31,11.31c-.37.37-.78.71-1.17,1.06ZM51.65,88.23l-2.58-2.57c-1.31,1.29-2.66,2.61-4,4a.84.84,0,0,0,0,.81c.52.62,1.13,1.16,1.69,1.73.32.33.6.29.91,0C49,90.84,50.34,89.54,51.65,88.23Z"/><path class="cls-1" d="M108,44.05c-.41,1.34-1.67,1.38-2.51.43s-1.65-1.7-2.55-2.63c-.92.95-1.77,1.83-2.64,2.71-1.53,1.54-3.06,3.07-4.61,4.6-.71.71-1.44.77-2,.2s-.45-1.25.23-1.94l6.64-6.64a7.32,7.32,0,0,1,.63-.47L96.9,36a2.32,2.32,0,0,1-.36.67q-3.23,3.26-6.47,6.48a4.07,4.07,0,0,1-.63.55,1.13,1.13,0,0,1-1.52-.16,1.1,1.1,0,0,1-.19-1.45,4.79,4.79,0,0,1,.59-.69L94.74,35c.2-.19.38-.39.65-.67L93,31.91a4.23,4.23,0,0,1-.59-.68,1.13,1.13,0,0,1,.17-1.52,1.11,1.11,0,0,1,1.52-.13,6.42,6.42,0,0,1,.62.55l12.48,12.49a9.53,9.53,0,0,1,.85,1.13Z"/><path class="cls-1" d="M94.53,57c-.34.42-.51.67-.73.89Q79,72.75,64.13,87.6a3.78,3.78,0,0,1-4.24,1.17,4.81,4.81,0,0,1-1.61-1.08c-2.89-2.85-5.76-5.74-8.63-8.62a3.76,3.76,0,0,1,0-5.85L79.34,43.54c.23-.23.49-.44.83-.73L77.31,40a7.69,7.69,0,0,1-.62-.66,1.2,1.2,0,0,1,.07-1.65,1.22,1.22,0,0,1,1.65-.06,4.33,4.33,0,0,1,.5.46L99.22,58.4c.1.11.22.21.32.32a1.26,1.26,0,0,1,.07,1.83,1.25,1.25,0,0,1-1.82-.09c-.89-.85-1.76-1.74-2.63-2.62C95,57.64,94.82,57.4,94.53,57ZM81.77,44.64a2.51,2.51,0,0,0-.25.23L51.4,75c-.88.88-.87,1.47,0,2.38l8.36,8.36c1.11,1.12,1.57,1.11,2.7,0L92.14,56.07c.19-.19.37-.39.51-.54Z"/><path class="cls-1" d="M76.75,56.83l-3.68,3.68c.37.32.82.66,1.2,1.06a1.24,1.24,0,0,1,.07,1.77,1.22,1.22,0,0,1-1.82-.05,13.49,13.49,0,0,1-1-1.1l-3.67,3.68a7.11,7.11,0,0,1,.86.68c.8.78.91,1.53.32,2.09s-1.28.45-2-.32c-.3-.31-.56-.65-.8-.92l-3.71,3.73a11,11,0,0,1,1.19.94,1.22,1.22,0,0,1,.12,1.82A1.26,1.26,0,0,1,62,73.83c-.39-.36-.73-.77-1-1.09L57.48,76.2,61.23,80c.13-.12.35-.32.56-.53q9.54-9.54,19.08-19.07a5,5,0,0,1,.73-.65,1.11,1.11,0,0,1,1.46.14,1.13,1.13,0,0,1,.2,1.52,4,4,0,0,1-.54.63L62.41,82.3c-1,1-1.52,1-2.54,0l-5-5c-.85-.86-.85-1.47,0-2.33L75.42,54.47c.86-.86,1.46-.84,2.33,0,.59.59,1.19,1.17,1.76,1.77A1.24,1.24,0,1,1,77.77,58C77.39,57.63,77.07,57.2,76.75,56.83Z"/></g><circle class="cls-2" cx="69" cy="69" r="66"/></g></g></svg>