<svg xmlns="http://www.w3.org/2000/svg" viewBox="0 0 60.77 60.74"><defs><style>.cls-1{fill:#fff;}</style></defs><g id="Capa_2" data-name="Capa 2"><g id="Capa_1-2" data-name="Capa 1"><g id="eSg1aJ"><path class="cls-1" d="M0,60.74c1.31-3.86,2.56-7.57,3.82-11.28.43-1.26.83-2.52,1.29-3.76A1.62,1.62,0,0,0,5,44.19,28.71,28.71,0,0,1,1.09,29a29.87,29.87,0,0,1,58.7-6.83A29.66,29.66,0,0,1,36.42,58.7a30.29,30.29,0,0,1-19.35-2.85,1.8,1.8,0,0,0-1.25-.1c-5,1.55-10,3.14-14.94,4.72Zm7.47-7.31.78-.21c2.74-.87,5.48-1.76,8.23-2.6a1.63,1.63,0,0,1,1.15.14A25.14,25.14,0,0,0,55.79,26,25.06,25.06,0,0,0,22.47,6.17C13,9.66,7.38,16.68,6,26.74a23.5,23.5,0,0,0,4.16,16.82,1.34,1.34,0,0,1,.19,1.4c-.41,1.08-.76,2.18-1.13,3.28C8.65,49.92,8.08,51.59,7.47,53.43Z"/><path class="cls-1" d="M16.33,22.73a8.45,8.45,0,0,1,2.19-5.31A4.64,4.64,0,0,1,22.6,16a1.67,1.67,0,0,1,1.08.93c.91,2,1.75,4,2.55,6a1.53,1.53,0,0,1-.13,1.2,14.45,14.45,0,0,1-1.65,2.23,1.36,1.36,0,0,0-.22,1.88,20.07,20.07,0,0,0,10,8.43,1.16,1.16,0,0,0,1.5-.36c.71-.88,1.46-1.73,2.13-2.63a1.22,1.22,0,0,1,1.61-.52c2,1,4.1,1.9,6.1,2.94a1.48,1.48,0,0,1,.5,1.21,6.26,6.26,0,0,1-5.19,5.95,10.09,10.09,0,0,1-4.82-.3c-7-1.85-12.29-6-16.34-11.92a17.23,17.23,0,0,1-3.13-6.33C16.45,24.08,16.41,23.4,16.33,22.73Z"/></g></g></g></svg>