<svg xmlns="http://www.w3.org/2000/svg" viewBox="0 0 87.99 87.99"><defs><style>.cls-1{fill:none;stroke:#4d4d4d;stroke-miterlimit:10;stroke-width:3.83px;}.cls-2{fill:#4d4d4d;}</style></defs><g id="Capa_2" data-name="Capa 2"><g id="Capa_1-2" data-name="Capa 1"><circle class="cls-1" cx="43.99" cy="43.99" r="42.08"/><g id="IJ6Lzg"><path class="cls-2" d="M74.29,41.28c-.15.9-.27,1.81-.48,2.69a17,17,0,0,1-13.9,12.89c-.63.09-.83.3-.8.94.06,1,0,2.06,0,3.17h3.21a7.79,7.79,0,0,1,1.28.05,1.86,1.86,0,0,1,1.59,2,1.88,1.88,0,0,1-1.83,1.79c-1.29,0-2.58,0-3.86,0l-.39,0v1.68c0,.7,0,1.41,0,2.11a1.9,1.9,0,0,1-3.8-.08c0-1.21,0-2.42,0-3.73H54.07c-.94,0-1.88,0-2.81,0a1.92,1.92,0,1,1,0-3.84c1.23,0,2.46,0,3.69,0l.33,0V57a17.22,17.22,0,0,1-8.42-3.41A17,17,0,0,1,33.29,56.8a16.66,16.66,0,0,1-9.13-4.89A17.18,17.18,0,0,1,23,29.44l-4.76-4.72a3.89,3.89,0,0,0,0,.42c0,1.21,0,2.42,0,3.63a1.93,1.93,0,1,1-3.84,0c0-2.89,0-5.78,0-8.67A1.92,1.92,0,0,1,16.45,18c2.91,0,5.81,0,8.72,0a1.92,1.92,0,1,1,0,3.83c-1.17,0-2.34,0-3.51,0h-.6l4.76,4.71a33,33,0,0,1,2.87-1.72,16.62,16.62,0,0,1,17.51,1.3.83.83,0,0,0,1.15,0A17.07,17.07,0,0,1,74.2,38.37c0,.15.06.3.09.45ZM44,29.13a13.23,13.23,0,1,0-5.74,24A13.24,13.24,0,0,0,49.67,40.56a13.64,13.64,0,0,0-1.5-6.66,1.92,1.92,0,1,1,3.43-1.68c3,6.38,2.52,12.45-1.63,18.19l-.31.46A13.21,13.21,0,0,0,69.49,35.14,13.05,13.05,0,0,0,57.08,26.8a12.76,12.76,0,0,0-9.95,4.69A12.5,12.5,0,0,0,44.2,42.17a24.67,24.67,0,0,0,1.3,4A1.93,1.93,0,1,1,42,47.7,16.83,16.83,0,0,1,42,32.32C42.54,31.23,43.27,30.23,44,29.13Z"/></g></g></g></svg>